<?xml version="1.0" standalone="no"?>
<!DOCTYPE svg PUBLIC "-//W3C//DTD SVG 20010904//EN"
 "http://www.w3.org/TR/2001/REC-SVG-20010904/DTD/svg10.dtd">
<svg version="1.0" xmlns="http://www.w3.org/2000/svg"
 width="2445.000000pt" height="423.000000pt" viewBox="0 0 2445.000000 423.000000"
 preserveAspectRatio="xMidYMid meet">
<metadata>
Created by potrace 1.15, written by Peter Selinger 2001-2017
</metadata>
<g transform="translate(0.000000,423.000000) scale(0.100000,-0.100000)"
fill="#000000" stroke="none">
<path d="M10410 2115 l0 -2115 40 0 40 0 0 2115 0 2115 -40 0 -40 0 0 -2115z"/>
<path d="M8244 3649 c-180 -16 -389 -71 -519 -136 -333 -168 -500 -443 -482
-793 11 -206 70 -350 195 -481 150 -158 325 -248 772 -396 441 -146 564 -231
577 -398 5 -52 2 -71 -17 -109 -54 -113 -211 -192 -427 -216 -212 -23 -545 32
-843 140 -166 60 -151 61 -183 -7 -40 -81 -110 -202 -178 -309 -33 -50 -59
-94 -59 -98 0 -13 201 -103 320 -144 137 -47 293 -85 450 -109 165 -25 546
-25 685 1 419 77 698 261 829 548 57 123 70 194 70 363 1 171 -12 235 -71 354
-42 88 -151 204 -253 269 -139 90 -244 134 -695 292 -396 138 -564 274 -541
439 16 120 126 211 312 261 103 28 339 38 482 20 l102 -12 0 -209 0 -209 240
0 240 0 0 38 c0 20 7 205 16 411 13 301 13 375 3 382 -7 4 -85 21 -173 38
-373 72 -611 92 -852 70z"/>
<path d="M12585 3653 c-211 -25 -346 -57 -478 -113 -228 -98 -367 -223 -463
-415 -57 -114 -76 -206 -76 -360 0 -377 172 -603 599 -786 65 -28 226 -87 358
-130 364 -121 517 -206 566 -314 26 -55 25 -154 -1 -204 -38 -75 -151 -149
-285 -186 -92 -26 -323 -31 -470 -10 -144 20 -383 80 -520 130 -153 57 -134
62 -198 -57 -31 -56 -92 -161 -136 -232 -45 -71 -80 -131 -78 -132 2 -2 52
-27 111 -55 512 -241 1195 -286 1651 -108 143 55 255 127 356 228 101 101 155
188 200 321 29 84 33 111 37 236 12 361 -110 561 -448 733 -142 73 -216 103
-467 187 -420 141 -598 249 -639 390 -18 61 -9 111 29 177 62 106 234 180 449
195 106 7 302 0 371 -13 l37 -7 0 -203 0 -202 98 -6 c53 -4 161 -7 238 -7
l141 0 6 78 c14 180 30 743 21 752 -11 11 -265 63 -414 84 -211 31 -474 44
-595 29z"/>
<path d="M3250 3385 l0 -255 -225 0 -225 0 0 -240 0 -240 225 0 224 0 3 -717
c3 -661 5 -723 22 -783 22 -77 73 -192 110 -246 71 -105 198 -205 326 -257
211 -87 493 -99 725 -32 170 49 358 158 469 273 l39 41 59 -50 c169 -140 369
-238 588 -285 120 -26 410 -27 530 -1 539 116 932 512 1047 1058 24 116 24
371 0 492 -103 515 -480 915 -982 1042 -115 29 -305 48 -402 39 l-73 -7 -45
-71 c-146 -234 -212 -483 -202 -761 5 -152 21 -241 67 -381 107 -322 359 -612
663 -760 31 -16 57 -31 57 -36 0 -14 -146 -78 -224 -98 -382 -97 -780 152
-896 560 -61 217 -22 486 98 675 36 56 39 69 46 155 15 198 79 457 146 590 17
34 29 64 27 66 -2 3 -33 -6 -68 -19 -419 -158 -728 -524 -826 -980 -26 -117
-25 -409 1 -527 22 -101 67 -233 107 -312 l29 -57 -53 -46 c-28 -25 -88 -64
-132 -85 -296 -146 -547 -54 -620 227 -13 48 -15 160 -15 675 l0 618 340 0
340 0 0 240 0 240 -340 0 -340 0 0 255 0 255 -310 0 -310 0 0 -255z m2928
-756 c193 -94 352 -295 413 -524 37 -139 26 -425 -17 -442 -23 -9 -178 75
-251 136 -123 103 -221 258 -265 419 -26 93 -31 303 -9 395 12 56 14 58 39 52
15 -3 55 -19 90 -36z"/>
<path d="M19580 3410 l0 -230 -225 0 -225 0 0 -240 0 -240 224 0 225 0 4 -717
c4 -780 4 -774 63 -931 89 -238 289 -397 574 -459 126 -27 374 -25 492 5 185
46 333 120 466 232 l73 61 42 -38 c137 -126 323 -212 562 -260 136 -27 477
-24 639 6 205 37 395 110 549 210 l77 51 0 220 0 220 -131 0 -130 0 -62 -44
c-182 -129 -387 -184 -641 -173 -204 9 -313 48 -422 149 -99 92 -165 248 -189
441 l-6 57 827 0 827 0 -6 243 c-5 256 -18 359 -64 517 -134 464 -456 710
-963 736 -258 14 -513 -51 -711 -181 -41 -27 -117 -92 -170 -144 -148 -147
-239 -300 -308 -515 -55 -172 -66 -256 -66 -511 0 -256 15 -363 75 -540 l31
-90 -43 -38 c-55 -48 -184 -112 -268 -133 -227 -57 -428 63 -479 287 -7 27
-11 291 -11 692 l0 647 340 0 340 0 0 240 0 240 -340 0 -340 0 0 230 0 230
-315 0 -315 0 0 -230z m2712 -689 c139 -54 240 -215 263 -416 3 -33 9 -72 11
-87 l6 -28 -507 0 -507 0 7 47 c20 135 91 289 171 373 102 107 197 141 379
137 95 -3 132 -8 177 -26z"/>
<path d="M23250 3450 l0 -190 104 0 c97 0 107 -2 134 -25 16 -13 35 -37 41
-52 8 -21 11 -306 9 -1076 l-3 -1049 -37 -34 c-38 -34 -38 -34 -138 -34 l-100
0 0 -185 0 -185 595 0 595 0 0 185 0 185 -90 0 c-93 0 -132 11 -161 46 -12 14
-15 204 -19 1268 -5 1180 -6 1253 -23 1284 -10 18 -29 37 -43 42 -15 6 -202
10 -445 10 l-419 0 0 -190z"/>
<path d="M730 3440 l0 -190 155 0 c85 0 155 -4 155 -8 0 -7 -736 -2092 -777
-2199 l-16 -43 -123 0 -124 0 0 -190 0 -190 540 0 540 0 0 190 0 190 -125 0
c-69 0 -125 2 -125 4 0 3 32 94 70 202 39 109 70 199 70 201 0 2 259 2 576 1
l576 -3 69 -195 c38 -107 69 -198 69 -202 0 -4 -52 -8 -115 -8 l-115 0 0 -190
0 -190 580 0 580 0 0 190 0 190 -119 0 -120 0 -19 53 c-11 28 -221 620 -467
1315 l-448 1262 -644 0 -643 0 0 -190z m1019 -981 c111 -312 201 -570 201
-573 0 -3 -183 -6 -406 -6 -321 0 -405 3 -402 13 103 294 403 1136 404 1134 1
-1 93 -257 203 -568z"/>
<path d="M18335 3214 c-291 -29 -577 -146 -766 -313 l-46 -40 -12 88 c-14 109
-35 172 -67 202 l-26 24 -429 3 -429 3 0 -206 0 -205 109 0 c103 0 111 -1 141
-26 63 -54 60 -7 60 -871 0 -764 -1 -789 -20 -820 -30 -50 -66 -63 -175 -63
l-95 0 0 -185 0 -185 620 0 620 0 0 185 0 185 -150 0 -150 0 0 785 0 784 73
22 c114 34 242 58 372 70 262 24 392 -32 424 -182 7 -33 11 -294 11 -764 l0
-715 -145 0 -145 0 0 -185 0 -185 605 0 605 0 0 185 0 185 -80 0 c-90 0 -126
13 -156 57 -18 27 -19 64 -24 873 -5 782 -7 850 -24 910 -41 142 -124 259
-225 314 -76 41 -190 66 -321 70 -63 2 -133 2 -155 0z"/>
<path d="M13760 2975 l0 -205 75 0 c82 0 122 -14 147 -52 29 -44 820 -1890
815 -1902 -3 -6 -31 -45 -64 -86 -124 -156 -300 -275 -495 -336 l-58 -18 0
-188 0 -188 251 0 250 0 60 41 c206 140 376 345 530 644 37 71 245 540 462
1041 218 501 404 929 416 951 11 22 34 52 51 67 29 24 39 26 121 26 l89 0 0
205 0 205 -545 0 -545 0 0 -204 0 -204 126 -4 c111 -3 127 -5 140 -23 9 -12
12 -31 8 -55 -6 -36 -449 -1129 -463 -1143 -4 -4 -122 268 -263 605 l-256 613
159 3 159 2 0 205 0 205 -585 0 -585 0 0 -205z"/>
</g>
</svg>
